<svg id="Layer_1" enable-background="new 0 0 256 256" height="512" viewBox="0 0 256 256" width="512" xmlns="http://www.w3.org/2000/svg"><g id="Layer_49"><g><path d="m52.7 127.2h190.1c4.4 0 8 3.6 8 8v110.3c0 4.4-3.6 8-8 8h-190.1c-4.4 0-8-3.6-8-8v-110.3c0-4.4 3.6-8 8-8z" fill="#3caadc"/><path d="m52.7 127.2h190.1c4.4 0 8 3.6 8 8v110.3c0 4.4-3.6 8-8 8h-190.1c-4.4 0-8-3.6-8-8v-110.3c0-4.4 3.6-8 8-8z" fill="#3caadc"/><path d="m44.7 183v62.5c0 4.4 3.6 8 8 8h60.9c-32.8-11.4-58.3-37.5-68.9-70.5z" fill="#9be5f9"/><g fill="#9be5f9"><g><path d="m107.3 195.1h6.1c1.1 0 2 .9 2 2v6.1c0 1.1-.9 2-2 2h-6.1c-1.1 0-2-.9-2-2v-6.2c0-1.1.9-1.9 2-1.9z"/><path d="m124.2 195.1h6.1c1.1 0 2 .9 2 2v6.1c0 1.1-.9 2-2 2h-6.1c-1.1 0-2-.9-2-2v-6.2c0-1.1.9-1.9 2-1.9z"/><path d="m141.1 195.1h6.1c1.1 0 2 .9 2 2v6.1c0 1.1-.9 2-2 2h-6.1c-1.1 0-2-.9-2-2v-6.2c0-1.1.9-1.9 2-1.9z"/><path d="m158 195.1h6.1c1.1 0 2 .9 2 2v6.1c0 1.1-.9 2-2 2h-6.1c-1.1 0-2-.9-2-2v-6.2c0-1.1.9-1.9 2-1.9z"/></g><g><path d="m180.6 195.1h6.1c1.1 0 2 .9 2 2v6.1c0 1.1-.9 2-2 2h-6.1c-1.1 0-2-.9-2-2v-6.2c0-1.1.9-1.9 2-1.9z"/><path d="m197.5 195.1h6.1c1.1 0 2 .9 2 2v6.1c0 1.1-.9 2-2 2h-6.1c-1.1 0-2-.9-2-2v-6.2c0-1.1.9-1.9 2-1.9z"/><path d="m214.4 195.1h6.1c1.1 0 2 .9 2 2v6.1c0 1.1-.9 2-2 2h-6.1c-1.1 0-2-.9-2-2v-6.2c0-1.1.9-1.9 2-1.9z"/></g></g><path d="m44.7 135.2c0-4.4 3.6-8 8-8h145.5l33-33c3.1-3.1 3.1-8.2 0-11.3l-78-78c-3.1-3.1-8.2-3.1-11.3 0l-134.4 134.3c-3.1 3.1-3.1 8.2 0 11.3l37.2 37.2z" fill="#edf4fc"/><path d="m52.7 127.2h31l95.9-95.9-16.3-16.3-112.6 112.4c.7-.1 1.4-.2 2-.2z" fill="#5290db"/><path d="m44.7 135.2c0-.7.1-1.3.3-2l-27.4 27.4 16.3 16.4 10.8-10.8z" fill="#5290db"/><path d="m70 143.7h23.5c4.2 0 7.6 3.4 7.6 7.6v23.5c0 4.2-3.4 7.6-7.6 7.6h-23.5c-4.2 0-7.6-3.4-7.6-7.6v-23.5c0-4.2 3.4-7.6 7.6-7.6z" fill="#f5c84c"/><path d="m198.7 229c0-4.1 2.2-8 5.7-10.1-5.6-3.5-12.9-1.7-16.4 3.9s-1.7 12.9 3.9 16.4c3.8 2.4 8.7 2.4 12.5 0-3.6-2.2-5.7-6.1-5.7-10.2z" fill="#fc657e"/><path d="m210.6 217.1c-2.2 0-4.4.6-6.2 1.8 5.6 3.4 7.4 10.8 3.9 16.4-1 1.6-2.3 2.9-3.9 3.9 5.6 3.5 12.9 1.7 16.4-3.9s1.7-12.9-3.9-16.4c-1.9-1.2-4.1-1.8-6.3-1.8z" fill="#f5c84c"/><path d="m210 229c0-4.1-2.1-8-5.7-10.1-5.6 3.4-7.4 10.8-3.9 16.4 1 1.6 2.3 2.9 3.9 3.9 3.6-2.2 5.7-6.1 5.7-10.2z" fill="#fc8c48"/><circle cx="210" cy="34.4" fill="#f5c84c" r="3.1"/><circle cx="29" cy="218.4" fill="#fc657e" r="3.1"/><circle cx="62" cy="62.4" fill="#87d147" r="3.1"/><path d="m28.8 195.3c-4.3-.8-7.8-4.1-8.6-8.5 0-.1-.1-.2-.2-.2s-.1.1-.2.2c-.9 4.3-4.3 7.7-8.6 8.5-.1 0-.2.1-.2.2s.1.1.2.2c4.3.8 7.8 4.1 8.6 8.5 0 .1.1.2.2.2s.1-.1.2-.2c.9-4.3 4.3-7.7 8.6-8.5.1 0 .2-.1.2-.2s-.1-.2-.2-.2z" fill="#f5c84c"/><path d="m199.9 13h-2.1v-2.1c0-1.6-1.3-2.9-2.9-2.9s-2.9 1.3-2.9 2.9v2.1h-2.1c-1.6 0-2.9 1.3-2.9 2.9s1.3 2.9 2.9 2.9h2.1v2.2c0 1.6 1.3 2.9 2.9 2.9s2.9-1.3 2.9-2.9v-2.1h2.1c1.6 0 2.9-1.3 2.9-2.9s-1.3-3-2.9-3z" fill="#70d6f9"/><path d="m5.7 152.4 36.5 36.5v56.6c0 5.8 4.7 10.5 10.5 10.5h190.1c5.8 0 10.5-4.7 10.5-10.5v-110.3c0-5.8-4.7-10.5-10.5-10.5h-38.5l28.7-28.8c4.1-4.1 4.1-10.8 0-14.9-16.2-16.2-61.4-61.4-78-78-4.1-4.1-10.8-4.1-14.9 0l-134.4 134.5c-4.1 4.1-4.1 10.7 0 14.9zm47 98.6c-3 0-5.5-2.5-5.5-5.5v-49.1c11 23.9 30 43.2 53.7 54.6zm-10.5-69.2-4.8-4.8 4.8-4.8zm0-16.7-8.3 8.3-12.8-12.8 21.1-21.1zm206.1-29.9v110.3c0 3-2.5 5.5-5.5 5.5h-128.8c-31.7-11.2-56.4-36.4-66.8-68.4v-47.4c0-3 2.5-5.5 5.5-5.5h190.1c3.1 0 5.5 2.4 5.5 5.5zm-72.2-104-93.4 93.4h-25.7l106.3-106.2zm53.4 61.2-32.3 32.3h-107.5l89.9-89.9 49.8 49.8c2.2 2.1 2.3 5.6.1 7.8zm-220.2 48.6 134.4-134.4c2.2-2.1 5.7-2.1 7.8 0l8.3 8.3-110.4 110.3c-3.2 1.1-5.6 3.5-6.7 6.7l-25.2 25.2-8.3-8.3c-2.1-2.1-2.1-5.6.1-7.8z"/><path d="m171.2 54.2-13.7 13.7c-1 1-1 2.5 0 3.5s2.5 1 3.5 0l13.7-13.7c1-1 1-2.5 0-3.5s-2.5-1.1-3.5 0c0-.1 0-.1 0 0z"/><path d="m103.7 151.3c0-5.6-4.5-10.1-10.1-10.1h-23.6c-5.6 0-10.1 4.5-10.1 10.1v23.5c0 5.6 4.5 10.1 10.1 10.1h23.5c5.6 0 10.1-4.5 10.1-10.1v-23.5zm-19.4 7.6h14.4v8.4h-14.4zm14.4-7.6v2.6h-14.4v-7.7h9.3c2.8 0 5.1 2.3 5.1 5.1zm-28.7-5.1h9.3v14.4h-14.4v-9.3c0-2.8 2.3-5.1 5.1-5.1zm-5.1 28.7v-9.3h14.4v14.4h-9.3c-2.8 0-5.1-2.3-5.1-5.1zm28.6 5.1h-9.3v-7.7h14.4v2.6c.1 2.8-2.2 5.1-5.1 5.1z"/><path d="m134 157.8c0 1.4 1.1 2.5 2.5 2.5h86c1.4 0 2.5-1.1 2.5-2.5s-1.1-2.5-2.5-2.5h-86c-1.4 0-2.5 1.1-2.5 2.5z"/><path d="m222.5 165.9h-86c-1.4 0-2.5 1.1-2.5 2.5s1.1 2.5 2.5 2.5h86c1.4 0 2.5-1.1 2.5-2.5s-1.1-2.5-2.5-2.5z"/><path d="m210.6 214.6c-2.2 0-4.3.5-6.2 1.4-7.2-3.5-15.8-.5-19.3 6.7s-.5 15.8 6.7 19.3c4 1.9 8.6 1.9 12.6 0 7.2 3.5 15.8.4 19.2-6.7 3.5-7.2.4-15.8-6.7-19.2-2-1-4.2-1.5-6.3-1.5zm-6.3 21.4c-3.9-3.4-4.3-9.3-.9-13.2.3-.3.6-.6.9-.9 3.9 3.4 4.3 9.3.9 13.2-.3.4-.6.7-.9.9zm-6.2 2.4c-5.2 0-9.4-4.2-9.4-9.4s4.2-9.4 9.4-9.4c.5 0 1 0 1.5.1-2.2 2.6-3.4 5.9-3.4 9.3 0 5.1 2.4 7.8 3.4 9.3-.5.1-1 .1-1.5.1zm12.5 0c-.5 0-1 0-1.5-.1 4.5-5.4 4.5-13.2 0-18.6.5-.1 1-.1 1.5-.1 5.2 0 9.4 4.2 9.4 9.4s-4.2 9.4-9.4 9.4z"/><path d="m113.4 192.6h-6.1c-2.5 0-4.5 2-4.5 4.5v6.1c0 2.5 2 4.5 4.5 4.5h6.1c2.5 0 4.5-2 4.5-4.5v-6.2c0-2.4-2-4.4-4.5-4.4zm-.5 10h-5.1v-5.1h5.1z"/><path d="m130.3 192.6h-6.1c-2.5 0-4.5 2-4.5 4.5v6.1c0 2.5 2 4.5 4.5 4.5h6.1c2.5 0 4.5-2 4.5-4.5v-6.2c0-2.4-2-4.4-4.5-4.4zm-.5 10h-5.1v-5.1h5.1z"/><path d="m147.2 192.6h-6.1c-2.5 0-4.5 2-4.5 4.5v6.1c0 2.5 2 4.5 4.5 4.5h6.1c2.5 0 4.5-2 4.5-4.5v-6.2c0-2.4-2-4.4-4.5-4.4zm-.5 10h-5.1v-5.1h5.1z"/><path d="m164.1 192.6h-6.1c-2.5 0-4.5 2-4.5 4.5v6.1c0 2.5 2 4.5 4.5 4.5h6.1c2.5 0 4.5-2 4.5-4.5v-6.2c0-2.4-2-4.4-4.5-4.4zm-.5 10h-5.1v-5.1h5.1z"/><path d="m191.2 203.2v-6.2c0-2.5-2-4.5-4.5-4.5h-6.1c-2.5 0-4.5 2-4.5 4.5v6.1c0 2.5 2 4.5 4.5 4.5h6.1c2.5 0 4.5-2 4.5-4.4zm-5-.6h-5.1v-5.1h5.1z"/><path d="m203.6 207.6c2.5 0 4.5-2 4.5-4.5v-6.1c0-2.5-2-4.5-4.5-4.5h-6.1c-2.5 0-4.5 2-4.5 4.5v6.1c0 2.5 2 4.5 4.5 4.5zm-5.6-10h5.1v5.1h-5.1z"/><path d="m220.5 192.6h-6.1c-2.5 0-4.5 2-4.5 4.5v6.1c0 2.5 2 4.5 4.5 4.5h6.1c2.5 0 4.5-2 4.5-4.5v-6.2c0-2.4-2-4.4-4.5-4.4zm-.5 10h-5.1v-5.1h5.1z"/></g></g></svg>